HIERARCHY
ROOT hip
{
	OFFSET 0.000000 0.000000 0.000000 
	CHANNELS 6 Xposition Yposition Zposition Zrotation Xrotation Yrotation
	JOINT abdomen
	{
		OFFSET 0.000000 3.402643 0.000000 
		CHANNELS 3 Zrotation Xrotation Yrotation
		JOINT chest
		{
			OFFSET 0.000000 8.438565 -0.680529 
			CHANNELS 3 Zrotation Xrotation Yrotation
			JOINT neck
			{
				OFFSET 0.000000 10.207942 -0.272212 
				CHANNELS 3 Zrotation Xrotation Yrotation
				JOINT head
				{
					OFFSET 0.000000 3.130431 0.000000 
					CHANNELS 3 Zrotation Xrotation Yrotation
					End Site
					{
						OFFSET 0.000000 3.130435 0.000000 
					}
				}
			}
			JOINT lCollar
			{
				OFFSET 3.470700 6.669187 -0.816635 
				CHANNELS 3 Zrotation Xrotation Yrotation
				JOINT lShldr
				{
					OFFSET 3.198488 0.000000 0.000000 
					CHANNELS 3 Zrotation Xrotation Yrotation
					JOINT lForeArm
					{
						OFFSET 10.139888 0.000000 0.000000 
						CHANNELS 3 Zrotation Xrotation Yrotation
						JOINT lHand
						{
							OFFSET 8.370511 0.000000 0.000000 
							CHANNELS 3 Zrotation Xrotation Yrotation
							End Site
							{
								OFFSET 4.083176 0.000000 0.000000 
							}
						}
					}
				}
			}
			JOINT rCollar
			{
				OFFSET -3.470700 6.669187 -0.816635 
				CHANNELS 3 Zrotation Xrotation Yrotation
				JOINT rShldr
				{
					OFFSET -3.198488 0.000000 0.000000 
					CHANNELS 3 Zrotation Xrotation Yrotation
					JOINT rForeArm
					{
						OFFSET -10.139888 0.000000 0.000000 
						CHANNELS 3 Zrotation Xrotation Yrotation
						JOINT rHand
						{
							OFFSET -8.370511 0.000000 0.000000 
							CHANNELS 3 Zrotation Xrotation Yrotation
							End Site
							{
								OFFSET -4.083176 0.000000 0.000000 
							}
						}
					}
				}
			}
		}
	}
	JOINT lThigh
	{
		OFFSET 5.308129 -1.633274 1.361059 
		CHANNELS 3 Zrotation Xrotation Yrotation
		JOINT lShin
		{
			OFFSET -2.041588 -20.007561 0.000000 
			CHANNELS 3 Zrotation Xrotation Yrotation
			JOINT lFoot
			{
				OFFSET 0.000000 -19.190928 -1.224953 
				CHANNELS 3 Zrotation Xrotation Yrotation
				End Site
				{
					OFFSET 0.000000 -2.449906 4.627600 
				}
			}
		}
	}
	JOINT rThigh
	{
		OFFSET -5.308129 -1.633274 1.361059 
		CHANNELS 3 Zrotation Xrotation Yrotation
		JOINT rShin
		{
			OFFSET 2.041588 -20.007561 0.000000 
			CHANNELS 3 Zrotation Xrotation Yrotation
			JOINT rFoot
			{
				OFFSET 0.000000 -19.190928 -1.224953 
				CHANNELS 3 Zrotation Xrotation Yrotation
				End Site
				{
					OFFSET 0.000000 -2.449906 4.627600 
				}
			}
		}
	}
}
MOTION
Frames: 13
Frame Time: 0.033333
1.965852 6.164840 3.221919 -125.639633 83.482353 123.149727 -0.313750 -5.117110 -1.268218 -1.622083 -2.001150 0.040998 2.372626 -50.044174 3.078908 0.823238 -27.165569 0.327053 15.888473 0.401422 21.905832 12.933511 23.710905 -0.106660 -32.639771 0.941711 -7.413865 -113.102715 -65.715477 -130.126022 6.524324 -6.159075 -21.589695 -15.974516 7.990268 -27.466503 -38.501575 -3.990280 60.637428 62.166145 11.529228 23.920156 19.251905 47.223606 -5.835086 -1.812235 -2.922094 0.713446 2.746379 -22.227533 9.731911 -28.703691 24.246809 6.321380 5.416937 41.219215 -0.626941 17.328239 -27.562744 9.606281 
-0.316537 15.521225 3.992316 -125.639633 83.482353 123.149727 -2.833541 -5.110964 -1.776068 -2.368641 -3.854137 -0.159303 8.904939 -45.922375 6.598057 2.568555 -35.539165 1.425300 14.433636 -2.883202 39.145588 28.240286 8.665560 7.616752 -2.704069 -12.045651 2.651799 -120.744354 -52.147038 -86.690857 20.187529 -16.203587 -24.490591 -35.335270 36.368660 -15.002896 0.271572 22.975857 -2.957639 125.258987 -16.678774 106.676064 18.867525 21.363911 -13.841122 -5.869813 48.208527 0.338956 13.188969 -55.560280 28.853973 -26.682505 13.158570 2.998621 8.127724 62.470310 -2.221077 15.679735 -37.178837 12.353375 
-0.849030 13.333119 3.771188 -125.639633 83.482353 123.149727 -8.296618 4.445365 1.886392 -0.058739 -4.033198 -0.638897 13.457538 0.503357 -5.176779 3.407266 -9.612206 -0.006578 13.213706 -4.611016 44.857254 78.233528 -12.642485 -59.690723 -68.693123 -43.269867 43.354588 -127.622955 -34.461170 -112.513969 22.710327 -11.764333 -15.741511 -28.873947 48.842155 -8.550074 0.467297 21.931118 -3.001480 -132.018265 45.376911 111.358261 12.393578 -36.280491 -29.135571 -175.540863 76.307709 166.779083 -14.336317 -55.770844 18.072206 -34.158783 -34.629040 -5.188946 68.239563 87.192085 -60.772877 14.066717 -14.573982 10.456107 
-0.970496 7.168649 3.688244 -125.639633 83.482353 123.149727 -5.155397 -3.365268 3.368430 2.286791 -2.166239 -1.026796 18.411713 -29.189093 0.610632 3.430756 -8.978286 -0.459487 11.987999 -1.289801 38.930119 -4.750847 -29.351467 -102.463875 -85.744194 -40.790894 32.583668 172.251389 -9.842759 111.573463 13.616961 -1.976584 -2.990341 -24.774551 38.974632 12.500673 1.921004 16.614313 -2.671541 -161.142487 17.479954 164.995789 13.777763 -33.779255 -28.345493 -13.777879 80.610916 6.561128 -16.037663 -30.745607 41.129025 -29.372204 -16.693373 -5.702092 6.162519 47.457367 -0.895512 15.286700 6.342210 -7.755215 
-0.475876 9.806758 3.442075 -125.639633 83.482353 123.149727 -2.042929 -2.478892 2.108868 1.602051 1.415463 -0.850131 9.144758 -29.023960 -0.650022 1.399983 -4.051526 -0.701848 17.475021 3.974010 13.996042 -13.729274 9.782193 -66.485115 -85.858406 -8.294173 5.806573 -117.990150 75.347923 59.118279 -0.543664 2.242835 5.599919 -3.222733 32.790276 10.518930 14.057632 13.506770 1.174340 -177.755402 -75.220856 175.780411 25.731918 -28.543697 -9.672968 -4.840938 53.784958 -0.513926 -14.964500 -5.004282 51.682346 -22.623699 -15.704295 -6.476611 5.574925 32.742393 -1.250172 13.686790 15.345956 -26.156467 
0.174041 10.265995 3.132761 -125.639633 83.482353 123.149727 -0.283625 3.124960 -0.267790 0.049004 4.863277 -0.306889 -1.938503 -9.106203 -0.307237 -0.852448 4.677219 -0.370083 28.540770 2.262095 -9.415477 -57.984348 24.007404 -9.864716 -47.061180 13.991605 -22.163349 -13.715766 37.253635 -47.272991 -13.022503 2.718655 10.629025 14.361775 29.850611 6.285911 26.011818 15.465306 7.059209 -7.744182 -22.783085 -3.611422 31.599215 -19.956459 6.426483 -3.805064 23.585432 -0.300191 -12.340671 21.644363 56.717262 -15.644659 -26.138330 -5.067149 5.054169 33.177727 -0.936538 11.711864 19.876661 -42.713486 
0.174041 7.590335 3.132761 -125.639633 83.482353 123.149727 -0.215024 2.343731 -0.206051 0.039141 3.642572 -0.227090 -1.805219 -14.456017 -0.265242 -0.732891 2.050613 -0.344868 26.208372 2.727672 -5.781173 -61.287930 24.934980 -7.564106 -40.703331 14.417228 -22.773125 -13.048939 5.779341 -55.501381 -12.085161 2.882539 4.574630 11.749557 28.199110 9.294883 28.693914 15.905628 8.254195 -6.998804 -17.043209 -1.685325 29.815769 -16.563665 5.650317 -3.929210 24.676582 -0.218499 -9.776305 15.464319 41.909245 -15.449855 -22.228521 -4.763368 5.563982 39.659267 -0.811533 9.335172 13.271973 -31.461380 
0.174041 7.590335 3.132761 -125.639633 83.482353 123.149727 -0.146538 1.562499 -0.142514 0.019549 2.431642 -0.157079 -1.691912 -19.806492 -0.212115 -0.605500 -0.566374 -0.318589 23.954247 2.902871 -1.994436 -55.150154 23.818909 -8.972897 -42.188210 18.888956 -28.092478 -15.219598 -13.788884 -54.090412 -11.265244 2.900064 -1.514792 9.324053 26.503347 12.218802 31.402336 16.483561 9.337036 -6.100936 -11.409550 -0.151931 28.151110 -13.047140 5.112503 -4.016403 25.682489 -0.191107 -8.666948 9.616789 27.531353 -15.038212 -16.517599 -4.002267 5.881940 42.836445 -0.862270 7.085346 7.623105 -20.883768 
0.174041 6.252504 3.132761 -125.639633 83.482353 123.149727 -0.078132 0.781246 -0.077074 0.009768 1.210944 -0.078329 -1.575238 -25.157688 -0.122914 -0.489040 -3.193241 -0.281231 21.804346 2.800521 1.905214 -53.573421 23.632217 -9.526107 -39.715511 21.207605 -31.559950 -17.486567 -23.839542 -52.049049 -10.583349 2.794109 -7.623342 7.076528 24.767256 15.077321 34.141914 17.175045 10.279958 -6.093921 -5.665721 1.561272 26.719152 -9.459396 4.687296 -4.190521 26.776073 -0.101754 -4.619143 1.128373 13.708858 -15.022202 -12.528642 -3.465454 6.696571 49.004650 -1.233570 4.071800 -0.505104 -10.762426 
0.174041 4.914673 3.132761 -125.639633 83.482353 123.149727 -0.000000 -0.000002 -0.000000 -0.000000 -0.000003 -0.000000 -1.473738 -30.519047 -0.016317 -0.363200 -5.820196 -0.232206 19.791233 2.428233 5.907115 -53.448212 23.814121 -8.031497 -36.264900 22.720181 -34.426491 -18.467022 -29.753679 -50.284653 -10.056779 2.588848 -13.746049 5.009794 23.007545 17.859135 36.893955 17.989716 11.100845 -5.807898 -0.008358 3.017108 25.353016 -5.765158 4.319383 -4.450265 27.800898 0.091565 -0.740885 -8.500335 0.899531 -14.888574 -6.898550 -2.416133 7.832266 52.434673 -2.105104 0.946873 -8.467652 -1.677321 
0.163036 5.155778 3.014189 -123.427345 83.689247 123.118011 0.146484 0.146484 0.683219 0.185553 -0.458980 -0.027811 -1.406965 -32.872978 -0.090152 -0.305009 -7.001853 0.158131 18.512117 2.392655 8.793830 -48.592968 23.832111 -10.300752 -35.275043 23.506615 -36.999638 -17.644939 -37.611439 -50.186790 -9.276796 2.259288 -16.696678 5.037475 22.976360 18.229113 38.087223 20.299416 13.200031 -8.436788 0.187333 -2.281426 27.389521 -10.828466 8.439393 -4.693346 38.897606 0.229532 1.340124 -18.632408 -2.301324 -13.989594 -4.197611 -2.269664 7.927243 53.398232 -2.818164 0.506890 -12.956776 0.437027 
0.131437 5.763690 2.711984 -117.387383 84.135689 122.548538 0.459120 1.396439 2.313030 0.683599 -0.224591 -0.153570 -1.380225 -32.648705 -0.559168 -0.295164 -6.992096 0.764851 17.446478 2.914854 11.498931 -40.878201 20.457621 -17.964766 -35.989105 23.359619 -38.956898 -15.792874 -46.378326 -48.288712 -7.859162 1.727152 -17.080322 8.708794 24.473120 15.613380 35.888729 24.678511 17.725624 -16.000662 -6.417163 -18.576887 36.917252 -25.024343 21.901606 -5.449937 60.966957 1.097790 2.626458 -28.695290 0.573525 -12.090936 -5.106063 -2.758385 7.429570 54.125751 -4.083761 2.692717 -15.772066 -4.089080 
0.081365 8.572049 2.306416 -108.419220 84.605804 120.722153 0.841142 3.183252 4.357728 1.318389 0.390524 -0.331028 -1.378133 -30.969252 -1.510039 -0.324235 -6.318257 0.882232 16.475727 3.780512 14.240394 -36.681278 12.837004 -27.823500 -36.003826 21.275688 -37.763580 -13.006581 -53.725128 -45.096066 -6.231770 1.226142 -15.919185 13.550585 25.667843 10.618801 31.918034 30.278831 25.916422 -32.853180 -14.649914 -45.287186 54.808052 -37.417686 45.786327 -9.552626 79.895432 5.376077 5.034070 -30.713747 4.156898 -10.599788 -7.593064 -3.464382 6.923300 53.803371 -5.822447 5.744828 -17.176304 -11.876356 
